<svg id="Слой_1" data-name="Слой 1" xmlns="http://www.w3.org/2000/svg" viewBox="0 0 607.79 704.59"><defs><style>.cls-1{fill:#f39322;fill-opacity:0.05;}</style></defs><path class="cls-1" d="M470.67,130c-36.61-65.9-107-62-186.13-34.43L243.1,0,184,26.41l40.29,93c-15.54,6.95-31.29,14.34-47,21.71L136.67,47.47l-59,26.35,41.41,95.55c-12.68,6-25.16,11.83-37.4,17.3l-.19-.25L0,222.74,26.93,285s43.28-20.32,42.91-19.2c23.94-10.69,37.66-.49,45.06,10.29l47.18,108.83a54.48,54.48,0,0,1,6.43-2.38c-2,.89-4.08,1.81-6.32,2.82l66.12,152.53c2.17,7.88,2.87,21.68-13.84,29.19,1,.32-43,19.19-43,19.19l18.63,74.63L267,626.55c14.32-6.38,28.52-12.43,42.37-18.53l41.89,96.57,59.06-26.37-41.47-95.63c16.35-6.92,32.09-13.79,47.41-20.65l41.26,95.21,59.11-26.41-41.81-96.46c96.93-50,155.79-105.72,124.61-201.43-25.1-77.07-74.75-94.28-136.93-82.41C489.2,218,497.55,178.17,470.67,130Zm6.95,243.6c31.36,72.22-97.86,120.15-137.94,138L284.16,383.54C324.27,365.72,445,298.22,477.62,373.6ZM371.77,205.2c28.48,65.73-79.65,104.88-113,119.79l-50.41-116.2C241.78,193.93,342.05,136.68,371.77,205.2Z"/></svg>