<svg width="361" height="380" viewBox="0 0 361 380" fill="none" xmlns="http://www.w3.org/2000/svg">
<circle cx="1.5" cy="1.5" r="1.5" fill="#C4C4C4"/>
<circle cx="20.5" cy="1.5" r="1.5" fill="#C4C4C4"/>
<circle cx="39.5" cy="1.5" r="1.5" fill="#C4C4C4"/>
<circle cx="58.5" cy="1.5" r="1.5" fill="#C4C4C4"/>
<circle cx="77.5" cy="1.5" r="1.5" fill="#C4C4C4"/>
<circle cx="95.5" cy="1.5" r="1.5" fill="#C4C4C4"/>
<circle cx="114.5" cy="1.5" r="1.5" fill="#C4C4C4"/>
<circle cx="133.5" cy="1.5" r="1.5" fill="#C4C4C4"/>
<circle cx="152.5" cy="1.5" r="1.5" fill="#C4C4C4"/>
<circle cx="171.5" cy="1.5" r="1.5" fill="#C4C4C4"/>
<circle cx="1.5" cy="14.5" r="1.5" fill="#C4C4C4"/>
<circle cx="20.5" cy="14.5" r="1.5" fill="#C4C4C4"/>
<circle cx="39.5" cy="14.5" r="1.5" fill="#C4C4C4"/>
<circle cx="58.5" cy="14.5" r="1.5" fill="#C4C4C4"/>
<circle cx="77.5" cy="14.5" r="1.5" fill="#C4C4C4"/>
<circle cx="95.5" cy="14.5" r="1.5" fill="#C4C4C4"/>
<circle cx="114.5" cy="14.5" r="1.5" fill="#C4C4C4"/>
<circle cx="133.5" cy="14.5" r="1.5" fill="#C4C4C4"/>
<circle cx="152.5" cy="14.5" r="1.5" fill="#C4C4C4"/>
<circle cx="171.5" cy="14.5" r="1.5" fill="#C4C4C4"/>
<circle cx="1.5" cy="27.5" r="1.5" fill="#C4C4C4"/>
<circle cx="20.5" cy="27.5" r="1.5" fill="#C4C4C4"/>
<circle cx="39.5" cy="27.5" r="1.5" fill="#C4C4C4"/>
<circle cx="58.5" cy="27.5" r="1.5" fill="#C4C4C4"/>
<circle cx="77.5" cy="27.5" r="1.5" fill="#C4C4C4"/>
<circle cx="95.5" cy="27.5" r="1.5" fill="#C4C4C4"/>
<circle cx="114.5" cy="27.5" r="1.5" fill="#C4C4C4"/>
<circle cx="133.5" cy="27.5" r="1.5" fill="#C4C4C4"/>
<circle cx="152.5" cy="27.5" r="1.5" fill="#C4C4C4"/>
<circle cx="171.5" cy="27.5" r="1.5" fill="#C4C4C4"/>
<circle cx="1.5" cy="40.5" r="1.5" fill="#C4C4C4"/>
<circle cx="20.5" cy="40.5" r="1.5" fill="#C4C4C4"/>
<circle cx="39.5" cy="40.5" r="1.5" fill="#C4C4C4"/>
<circle cx="58.5" cy="40.5" r="1.5" fill="#C4C4C4"/>
<circle cx="77.5" cy="40.5" r="1.5" fill="#C4C4C4"/>
<circle cx="95.5" cy="40.5" r="1.5" fill="#C4C4C4"/>
<circle cx="114.5" cy="40.5" r="1.5" fill="#C4C4C4"/>
<circle cx="133.5" cy="40.5" r="1.5" fill="#C4C4C4"/>
<circle cx="152.5" cy="40.5" r="1.5" fill="#C4C4C4"/>
<circle cx="171.5" cy="40.5" r="1.5" fill="#C4C4C4"/>
<circle cx="1.5" cy="53.5" r="1.5" fill="#C4C4C4"/>
<circle cx="20.5" cy="53.5" r="1.5" fill="#C4C4C4"/>
<circle cx="39.5" cy="53.5" r="1.5" fill="#C4C4C4"/>
<circle cx="58.5" cy="53.5" r="1.5" fill="#C4C4C4"/>
<circle cx="77.5" cy="53.5" r="1.5" fill="#C4C4C4"/>
<circle cx="95.5" cy="53.5" r="1.5" fill="#C4C4C4"/>
<circle cx="114.5" cy="53.5" r="1.5" fill="#C4C4C4"/>
<circle cx="133.5" cy="53.5" r="1.5" fill="#C4C4C4"/>
<circle cx="152.5" cy="53.5" r="1.5" fill="#C4C4C4"/>
<circle cx="171.5" cy="53.5" r="1.5" fill="#C4C4C4"/>
<circle cx="1.5" cy="66.5" r="1.5" fill="#C4C4C4"/>
<circle cx="20.5" cy="66.5" r="1.5" fill="#C4C4C4"/>
<circle cx="39.5" cy="66.5" r="1.5" fill="#C4C4C4"/>
<circle cx="58.5" cy="66.5" r="1.5" fill="#C4C4C4"/>
<circle cx="77.5" cy="66.5" r="1.5" fill="#C4C4C4"/>
<circle cx="95.5" cy="66.5" r="1.5" fill="#C4C4C4"/>
<circle cx="114.5" cy="66.5" r="1.5" fill="#C4C4C4"/>
<circle cx="133.5" cy="66.5" r="1.5" fill="#C4C4C4"/>
<circle cx="152.5" cy="66.5" r="1.5" fill="#C4C4C4"/>
<circle cx="171.5" cy="66.5" r="1.5" fill="#C4C4C4"/>
<circle cx="1.5" cy="79.5" r="1.5" fill="#C4C4C4"/>
<circle cx="20.5" cy="79.5" r="1.5" fill="#C4C4C4"/>
<circle cx="39.5" cy="79.5" r="1.5" fill="#C4C4C4"/>
<circle cx="58.5" cy="79.5" r="1.5" fill="#C4C4C4"/>
<circle cx="77.5" cy="79.5" r="1.5" fill="#C4C4C4"/>
<circle cx="95.5" cy="79.5" r="1.5" fill="#C4C4C4"/>
<circle cx="114.5" cy="79.5" r="1.5" fill="#C4C4C4"/>
<circle cx="133.5" cy="79.5" r="1.5" fill="#C4C4C4"/>
<circle cx="152.5" cy="79.5" r="1.5" fill="#C4C4C4"/>
<circle cx="171.5" cy="79.5" r="1.5" fill="#C4C4C4"/>
<circle cx="1.5" cy="92.5" r="1.5" fill="#C4C4C4"/>
<circle cx="20.5" cy="92.5" r="1.5" fill="#C4C4C4"/>
<circle cx="39.5" cy="92.5" r="1.5" fill="#C4C4C4"/>
<circle cx="58.5" cy="92.5" r="1.5" fill="#C4C4C4"/>
<circle cx="77.5" cy="92.5" r="1.5" fill="#C4C4C4"/>
<circle cx="95.5" cy="92.5" r="1.5" fill="#C4C4C4"/>
<circle cx="114.5" cy="92.5" r="1.5" fill="#C4C4C4"/>
<circle cx="133.5" cy="92.5" r="1.5" fill="#C4C4C4"/>
<circle cx="152.5" cy="92.5" r="1.5" fill="#C4C4C4"/>
<circle cx="171.5" cy="92.5" r="1.5" fill="#C4C4C4"/>
<circle cx="1.5" cy="105.5" r="1.5" fill="#C4C4C4"/>
<circle cx="20.5" cy="105.5" r="1.5" fill="#C4C4C4"/>
<circle cx="39.5" cy="105.5" r="1.5" fill="#C4C4C4"/>
<circle cx="58.5" cy="105.5" r="1.5" fill="#C4C4C4"/>
<circle cx="77.5" cy="105.5" r="1.5" fill="#C4C4C4"/>
<circle cx="95.5" cy="105.5" r="1.5" fill="#C4C4C4"/>
<circle cx="114.5" cy="105.5" r="1.5" fill="#C4C4C4"/>
<circle cx="133.5" cy="105.5" r="1.5" fill="#C4C4C4"/>
<circle cx="152.5" cy="105.5" r="1.5" fill="#C4C4C4"/>
<circle cx="171.5" cy="105.5" r="1.5" fill="#C4C4C4"/>
<circle cx="1.5" cy="118.5" r="1.5" fill="#C4C4C4"/>
<circle cx="20.5" cy="118.5" r="1.5" fill="#C4C4C4"/>
<circle cx="39.5" cy="118.5" r="1.5" fill="#C4C4C4"/>
<circle cx="58.5" cy="118.5" r="1.5" fill="#C4C4C4"/>
<circle cx="77.5" cy="118.5" r="1.5" fill="#C4C4C4"/>
<circle cx="95.5" cy="118.5" r="1.5" fill="#C4C4C4"/>
<circle cx="114.5" cy="118.5" r="1.5" fill="#C4C4C4"/>
<circle cx="133.5" cy="118.5" r="1.5" fill="#C4C4C4"/>
<circle cx="152.5" cy="118.5" r="1.5" fill="#C4C4C4"/>
<circle cx="171.5" cy="118.5" r="1.5" fill="#C4C4C4"/>
<circle cx="1.5" cy="131.5" r="1.5" fill="#C4C4C4"/>
<circle cx="20.5" cy="131.5" r="1.5" fill="#C4C4C4"/>
<circle cx="39.5" cy="131.5" r="1.5" fill="#C4C4C4"/>
<circle cx="58.5" cy="131.5" r="1.5" fill="#C4C4C4"/>
<circle cx="77.5" cy="131.5" r="1.5" fill="#C4C4C4"/>
<circle cx="95.5" cy="131.5" r="1.5" fill="#C4C4C4"/>
<circle cx="114.5" cy="131.5" r="1.5" fill="#C4C4C4"/>
<circle cx="133.5" cy="131.5" r="1.5" fill="#C4C4C4"/>
<circle cx="152.5" cy="131.5" r="1.5" fill="#C4C4C4"/>
<circle cx="171.5" cy="131.5" r="1.5" fill="#C4C4C4"/>
<circle cx="1.5" cy="144.5" r="1.5" fill="#C4C4C4"/>
<circle cx="20.5" cy="144.5" r="1.5" fill="#C4C4C4"/>
<circle cx="39.5" cy="144.5" r="1.5" fill="#C4C4C4"/>
<circle cx="58.5" cy="144.5" r="1.5" fill="#C4C4C4"/>
<circle cx="77.5" cy="144.5" r="1.5" fill="#C4C4C4"/>
<circle cx="95.5" cy="144.5" r="1.5" fill="#C4C4C4"/>
<circle cx="114.5" cy="144.5" r="1.5" fill="#C4C4C4"/>
<circle cx="133.5" cy="144.5" r="1.5" fill="#C4C4C4"/>
<circle cx="152.5" cy="144.5" r="1.5" fill="#C4C4C4"/>
<circle cx="171.5" cy="144.5" r="1.5" fill="#C4C4C4"/>
<circle cx="1.5" cy="157.5" r="1.5" fill="#C4C4C4"/>
<circle cx="20.5" cy="157.5" r="1.5" fill="#C4C4C4"/>
<circle cx="39.5" cy="157.5" r="1.5" fill="#C4C4C4"/>
<circle cx="58.5" cy="157.5" r="1.5" fill="#C4C4C4"/>
<circle cx="77.5" cy="157.5" r="1.5" fill="#C4C4C4"/>
<circle cx="95.5" cy="157.5" r="1.5" fill="#C4C4C4"/>
<circle cx="114.5" cy="157.5" r="1.5" fill="#C4C4C4"/>
<circle cx="133.5" cy="157.5" r="1.5" fill="#C4C4C4"/>
<circle cx="152.5" cy="157.5" r="1.5" fill="#C4C4C4"/>
<circle cx="171.5" cy="157.5" r="1.5" fill="#C4C4C4"/>
<circle cx="1.5" cy="170.5" r="1.5" fill="#C4C4C4"/>
<circle cx="20.5" cy="170.5" r="1.5" fill="#C4C4C4"/>
<circle cx="39.5" cy="170.5" r="1.5" fill="#C4C4C4"/>
<circle cx="58.5" cy="170.5" r="1.5" fill="#C4C4C4"/>
<circle cx="77.5" cy="170.5" r="1.5" fill="#C4C4C4"/>
<circle cx="95.5" cy="170.5" r="1.5" fill="#C4C4C4"/>
<circle cx="114.5" cy="170.5" r="1.5" fill="#C4C4C4"/>
<circle cx="133.5" cy="170.5" r="1.5" fill="#C4C4C4"/>
<circle cx="152.5" cy="170.5" r="1.5" fill="#C4C4C4"/>
<circle cx="171.5" cy="170.5" r="1.5" fill="#C4C4C4"/>
<circle cx="1.5" cy="183.5" r="1.5" fill="#C4C4C4"/>
<circle cx="20.5" cy="183.5" r="1.5" fill="#C4C4C4"/>
<circle cx="39.5" cy="183.5" r="1.5" fill="#C4C4C4"/>
<circle cx="58.5" cy="183.5" r="1.5" fill="#C4C4C4"/>
<circle cx="77.5" cy="183.5" r="1.5" fill="#C4C4C4"/>
<circle cx="95.5" cy="183.5" r="1.5" fill="#C4C4C4"/>
<circle cx="114.5" cy="183.5" r="1.5" fill="#C4C4C4"/>
<circle cx="133.5" cy="183.5" r="1.5" fill="#C4C4C4"/>
<circle cx="152.5" cy="183.5" r="1.5" fill="#C4C4C4"/>
<circle cx="171.5" cy="183.5" r="1.5" fill="#C4C4C4"/>
<circle cx="1.5" cy="196.5" r="1.5" fill="#C4C4C4"/>
<circle cx="20.5" cy="196.5" r="1.5" fill="#C4C4C4"/>
<circle cx="39.5" cy="196.5" r="1.5" fill="#C4C4C4"/>
<circle cx="58.5" cy="196.5" r="1.5" fill="#C4C4C4"/>
<circle cx="77.5" cy="196.5" r="1.5" fill="#C4C4C4"/>
<circle cx="95.5" cy="196.5" r="1.5" fill="#C4C4C4"/>
<circle cx="114.5" cy="196.5" r="1.5" fill="#C4C4C4"/>
<circle cx="133.5" cy="196.5" r="1.5" fill="#C4C4C4"/>
<circle cx="152.5" cy="196.5" r="1.5" fill="#C4C4C4"/>
<circle cx="171.5" cy="196.5" r="1.5" fill="#C4C4C4"/>
<circle cx="1.5" cy="209.5" r="1.5" fill="#C4C4C4"/>
<circle cx="20.5" cy="209.5" r="1.5" fill="#C4C4C4"/>
<circle cx="39.5" cy="209.5" r="1.5" fill="#C4C4C4"/>
<circle cx="58.5" cy="209.5" r="1.5" fill="#C4C4C4"/>
<circle cx="77.5" cy="209.5" r="1.5" fill="#C4C4C4"/>
<circle cx="95.5" cy="209.5" r="1.5" fill="#C4C4C4"/>
<circle cx="114.5" cy="209.5" r="1.5" fill="#C4C4C4"/>
<circle cx="133.5" cy="209.5" r="1.5" fill="#C4C4C4"/>
<circle cx="152.5" cy="209.5" r="1.5" fill="#C4C4C4"/>
<circle cx="171.5" cy="209.5" r="1.5" fill="#C4C4C4"/>
<circle cx="1.5" cy="222.5" r="1.5" fill="#C4C4C4"/>
<circle cx="20.5" cy="222.5" r="1.5" fill="#C4C4C4"/>
<circle cx="39.5" cy="222.5" r="1.5" fill="#C4C4C4"/>
<circle cx="58.5" cy="222.5" r="1.5" fill="#C4C4C4"/>
<circle cx="77.5" cy="222.5" r="1.5" fill="#C4C4C4"/>
<circle cx="95.5" cy="222.5" r="1.5" fill="#C4C4C4"/>
<circle cx="114.5" cy="222.5" r="1.5" fill="#C4C4C4"/>
<circle cx="133.5" cy="222.5" r="1.5" fill="#C4C4C4"/>
<circle cx="152.5" cy="222.5" r="1.5" fill="#C4C4C4"/>
<circle cx="171.5" cy="222.5" r="1.5" fill="#C4C4C4"/>
<circle cx="1.5" cy="235.5" r="1.5" fill="#C4C4C4"/>
<circle cx="20.5" cy="235.5" r="1.5" fill="#C4C4C4"/>
<circle cx="39.5" cy="235.5" r="1.5" fill="#C4C4C4"/>
<circle cx="58.5" cy="235.5" r="1.5" fill="#C4C4C4"/>
<circle cx="77.5" cy="235.5" r="1.5" fill="#C4C4C4"/>
<circle cx="95.5" cy="235.5" r="1.5" fill="#C4C4C4"/>
<circle cx="114.5" cy="235.5" r="1.5" fill="#C4C4C4"/>
<circle cx="133.5" cy="235.5" r="1.5" fill="#C4C4C4"/>
<circle cx="152.5" cy="235.5" r="1.5" fill="#C4C4C4"/>
<circle cx="171.5" cy="235.5" r="1.5" fill="#C4C4C4"/>
<circle cx="1.5" cy="248.5" r="1.5" fill="#C4C4C4"/>
<circle cx="20.5" cy="248.5" r="1.5" fill="#C4C4C4"/>
<circle cx="39.5" cy="248.5" r="1.5" fill="#C4C4C4"/>
<circle cx="58.5" cy="248.5" r="1.5" fill="#C4C4C4"/>
<circle cx="77.5" cy="248.5" r="1.5" fill="#C4C4C4"/>
<circle cx="95.5" cy="248.5" r="1.5" fill="#C4C4C4"/>
<circle cx="114.5" cy="248.5" r="1.5" fill="#C4C4C4"/>
<circle cx="133.5" cy="248.5" r="1.5" fill="#C4C4C4"/>
<circle cx="152.5" cy="248.5" r="1.5" fill="#C4C4C4"/>
<circle cx="171.5" cy="248.5" r="1.5" fill="#C4C4C4"/>
<circle cx="1.5" cy="261.5" r="1.5" fill="#C4C4C4"/>
<circle cx="20.5" cy="261.5" r="1.5" fill="#C4C4C4"/>
<circle cx="39.5" cy="261.5" r="1.5" fill="#C4C4C4"/>
<circle cx="58.5" cy="261.5" r="1.5" fill="#C4C4C4"/>
<circle cx="77.5" cy="261.5" r="1.5" fill="#C4C4C4"/>
<circle cx="95.5" cy="261.5" r="1.5" fill="#C4C4C4"/>
<circle cx="114.5" cy="261.5" r="1.5" fill="#C4C4C4"/>
<circle cx="133.5" cy="261.5" r="1.5" fill="#C4C4C4"/>
<circle cx="152.5" cy="261.5" r="1.5" fill="#C4C4C4"/>
<circle cx="171.5" cy="261.5" r="1.5" fill="#C4C4C4"/>
<circle cx="1.5" cy="274.5" r="1.5" fill="#C4C4C4"/>
<circle cx="20.5" cy="274.5" r="1.5" fill="#C4C4C4"/>
<circle cx="39.5" cy="274.5" r="1.5" fill="#C4C4C4"/>
<circle cx="58.5" cy="274.5" r="1.5" fill="#C4C4C4"/>
<circle cx="77.5" cy="274.5" r="1.5" fill="#C4C4C4"/>
<circle cx="95.5" cy="274.5" r="1.5" fill="#C4C4C4"/>
<circle cx="114.5" cy="274.5" r="1.5" fill="#C4C4C4"/>
<circle cx="133.5" cy="274.5" r="1.5" fill="#C4C4C4"/>
<circle cx="152.5" cy="274.5" r="1.5" fill="#C4C4C4"/>
<circle cx="171.5" cy="274.5" r="1.5" fill="#C4C4C4"/>
<circle cx="1.5" cy="287.5" r="1.5" fill="#C4C4C4"/>
<circle cx="20.5" cy="287.5" r="1.5" fill="#C4C4C4"/>
<circle cx="39.5" cy="287.5" r="1.5" fill="#C4C4C4"/>
<circle cx="58.5" cy="287.5" r="1.5" fill="#C4C4C4"/>
<circle cx="77.5" cy="287.5" r="1.5" fill="#C4C4C4"/>
<circle cx="95.5" cy="287.5" r="1.5" fill="#C4C4C4"/>
<circle cx="114.5" cy="287.5" r="1.5" fill="#C4C4C4"/>
<circle cx="133.5" cy="287.5" r="1.5" fill="#C4C4C4"/>
<circle cx="152.5" cy="287.5" r="1.5" fill="#C4C4C4"/>
<circle cx="171.5" cy="287.5" r="1.5" fill="#C4C4C4"/>
<circle cx="1.5" cy="300.5" r="1.5" fill="#C4C4C4"/>
<circle cx="20.5" cy="300.5" r="1.5" fill="#C4C4C4"/>
<circle cx="39.5" cy="300.5" r="1.5" fill="#C4C4C4"/>
<circle cx="58.5" cy="300.5" r="1.5" fill="#C4C4C4"/>
<circle cx="77.5" cy="300.5" r="1.5" fill="#C4C4C4"/>
<circle cx="95.5" cy="300.5" r="1.5" fill="#C4C4C4"/>
<circle cx="114.5" cy="300.5" r="1.5" fill="#C4C4C4"/>
<circle cx="133.5" cy="300.5" r="1.5" fill="#C4C4C4"/>
<circle cx="152.5" cy="300.5" r="1.5" fill="#C4C4C4"/>
<circle cx="171.5" cy="300.5" r="1.5" fill="#C4C4C4"/>
<circle cx="1.5" cy="313.5" r="1.5" fill="#C4C4C4"/>
<circle cx="20.5" cy="313.5" r="1.5" fill="#C4C4C4"/>
<circle cx="39.5" cy="313.5" r="1.5" fill="#C4C4C4"/>
<circle cx="58.5" cy="313.5" r="1.5" fill="#C4C4C4"/>
<circle cx="77.5" cy="313.5" r="1.5" fill="#C4C4C4"/>
<circle cx="95.5" cy="313.5" r="1.5" fill="#C4C4C4"/>
<circle cx="114.5" cy="313.5" r="1.5" fill="#C4C4C4"/>
<circle cx="133.5" cy="313.5" r="1.5" fill="#C4C4C4"/>
<circle cx="152.5" cy="313.5" r="1.5" fill="#C4C4C4"/>
<circle cx="171.5" cy="313.5" r="1.5" fill="#C4C4C4"/>
<circle cx="1.5" cy="326.5" r="1.5" fill="#C4C4C4"/>
<circle cx="20.5" cy="326.5" r="1.5" fill="#C4C4C4"/>
<circle cx="39.5" cy="326.5" r="1.5" fill="#C4C4C4"/>
<circle cx="58.5" cy="326.5" r="1.5" fill="#C4C4C4"/>
<circle cx="77.5" cy="326.5" r="1.5" fill="#C4C4C4"/>
<circle cx="95.5" cy="326.5" r="1.5" fill="#C4C4C4"/>
<circle cx="114.5" cy="326.5" r="1.5" fill="#C4C4C4"/>
<circle cx="133.5" cy="326.5" r="1.5" fill="#C4C4C4"/>
<circle cx="152.5" cy="326.5" r="1.5" fill="#C4C4C4"/>
<circle cx="171.5" cy="326.5" r="1.5" fill="#C4C4C4"/>
<circle cx="1.5" cy="339.5" r="1.5" fill="#C4C4C4"/>
<circle cx="20.5" cy="339.5" r="1.5" fill="#C4C4C4"/>
<circle cx="39.5" cy="339.5" r="1.5" fill="#C4C4C4"/>
<circle cx="58.5" cy="339.5" r="1.5" fill="#C4C4C4"/>
<circle cx="77.5" cy="339.5" r="1.5" fill="#C4C4C4"/>
<circle cx="95.5" cy="339.5" r="1.5" fill="#C4C4C4"/>
<circle cx="114.5" cy="339.5" r="1.5" fill="#C4C4C4"/>
<circle cx="133.5" cy="339.5" r="1.5" fill="#C4C4C4"/>
<circle cx="152.5" cy="339.5" r="1.5" fill="#C4C4C4"/>
<circle cx="171.5" cy="339.5" r="1.5" fill="#C4C4C4"/>
<circle cx="1.5" cy="352.5" r="1.5" fill="#C4C4C4"/>
<circle cx="20.5" cy="352.5" r="1.5" fill="#C4C4C4"/>
<circle cx="39.5" cy="352.5" r="1.5" fill="#C4C4C4"/>
<circle cx="58.5" cy="352.5" r="1.5" fill="#C4C4C4"/>
<circle cx="77.5" cy="352.5" r="1.5" fill="#C4C4C4"/>
<circle cx="95.5" cy="352.5" r="1.5" fill="#C4C4C4"/>
<circle cx="114.5" cy="352.5" r="1.5" fill="#C4C4C4"/>
<circle cx="133.5" cy="352.5" r="1.5" fill="#C4C4C4"/>
<circle cx="152.5" cy="352.5" r="1.5" fill="#C4C4C4"/>
<circle cx="171.5" cy="352.5" r="1.5" fill="#C4C4C4"/>
<circle cx="1.5" cy="365.5" r="1.5" fill="#C4C4C4"/>
<circle cx="20.5" cy="365.5" r="1.5" fill="#C4C4C4"/>
<circle cx="39.5" cy="365.5" r="1.5" fill="#C4C4C4"/>
<circle cx="58.5" cy="365.5" r="1.5" fill="#C4C4C4"/>
<circle cx="77.5" cy="365.5" r="1.5" fill="#C4C4C4"/>
<circle cx="95.5" cy="365.5" r="1.5" fill="#C4C4C4"/>
<circle cx="114.5" cy="365.5" r="1.5" fill="#C4C4C4"/>
<circle cx="133.5" cy="365.5" r="1.5" fill="#C4C4C4"/>
<circle cx="152.5" cy="365.5" r="1.5" fill="#C4C4C4"/>
<circle cx="171.5" cy="365.5" r="1.5" fill="#C4C4C4"/>
<circle cx="1.5" cy="378.5" r="1.5" fill="#C4C4C4"/>
<circle cx="20.5" cy="378.5" r="1.5" fill="#C4C4C4"/>
<circle cx="39.5" cy="378.5" r="1.5" fill="#C4C4C4"/>
<circle cx="58.5" cy="378.5" r="1.5" fill="#C4C4C4"/>
<circle cx="77.5" cy="378.5" r="1.5" fill="#C4C4C4"/>
<circle cx="95.5" cy="378.5" r="1.5" fill="#C4C4C4"/>
<circle cx="114.5" cy="378.5" r="1.5" fill="#C4C4C4"/>
<circle cx="133.5" cy="378.5" r="1.5" fill="#C4C4C4"/>
<circle cx="152.5" cy="378.5" r="1.5" fill="#C4C4C4"/>
<circle cx="171.5" cy="378.5" r="1.5" fill="#C4C4C4"/>
<circle cx="189.5" cy="1.5" r="1.5" fill="#C4C4C4"/>
<circle cx="208.5" cy="1.5" r="1.5" fill="#C4C4C4"/>
<circle cx="227.5" cy="1.5" r="1.5" fill="#C4C4C4"/>
<circle cx="246.5" cy="1.5" r="1.5" fill="#C4C4C4"/>
<circle cx="265.5" cy="1.5" r="1.5" fill="#C4C4C4"/>
<circle cx="283.5" cy="1.5" r="1.5" fill="#C4C4C4"/>
<circle cx="302.5" cy="1.5" r="1.5" fill="#C4C4C4"/>
<circle cx="321.5" cy="1.5" r="1.5" fill="#C4C4C4"/>
<circle cx="340.5" cy="1.5" r="1.5" fill="#C4C4C4"/>
<circle cx="359.5" cy="1.5" r="1.5" fill="#C4C4C4"/>
<circle cx="189.5" cy="14.5" r="1.5" fill="#C4C4C4"/>
<circle cx="208.5" cy="14.5" r="1.5" fill="#C4C4C4"/>
<circle cx="227.5" cy="14.5" r="1.5" fill="#C4C4C4"/>
<circle cx="246.5" cy="14.5" r="1.5" fill="#C4C4C4"/>
<circle cx="265.5" cy="14.5" r="1.5" fill="#C4C4C4"/>
<circle cx="283.5" cy="14.5" r="1.5" fill="#C4C4C4"/>
<circle cx="302.5" cy="14.5" r="1.5" fill="#C4C4C4"/>
<circle cx="321.5" cy="14.5" r="1.5" fill="#C4C4C4"/>
<circle cx="340.5" cy="14.5" r="1.5" fill="#C4C4C4"/>
<circle cx="359.5" cy="14.5" r="1.5" fill="#C4C4C4"/>
<circle cx="189.5" cy="27.5" r="1.5" fill="#C4C4C4"/>
<circle cx="208.5" cy="27.5" r="1.5" fill="#C4C4C4"/>
<circle cx="227.5" cy="27.5" r="1.5" fill="#C4C4C4"/>
<circle cx="246.5" cy="27.5" r="1.5" fill="#C4C4C4"/>
<circle cx="265.5" cy="27.5" r="1.5" fill="#C4C4C4"/>
<circle cx="283.5" cy="27.5" r="1.5" fill="#C4C4C4"/>
<circle cx="302.5" cy="27.5" r="1.5" fill="#C4C4C4"/>
<circle cx="321.5" cy="27.5" r="1.5" fill="#C4C4C4"/>
<circle cx="340.5" cy="27.5" r="1.5" fill="#C4C4C4"/>
<circle cx="359.5" cy="27.5" r="1.5" fill="#C4C4C4"/>
<circle cx="189.5" cy="40.5" r="1.5" fill="#C4C4C4"/>
<circle cx="208.5" cy="40.5" r="1.5" fill="#C4C4C4"/>
<circle cx="227.5" cy="40.5" r="1.5" fill="#C4C4C4"/>
<circle cx="246.5" cy="40.5" r="1.5" fill="#C4C4C4"/>
<circle cx="265.5" cy="40.5" r="1.5" fill="#C4C4C4"/>
<circle cx="283.5" cy="40.5" r="1.5" fill="#C4C4C4"/>
<circle cx="302.5" cy="40.5" r="1.5" fill="#C4C4C4"/>
<circle cx="321.5" cy="40.5" r="1.5" fill="#C4C4C4"/>
<circle cx="340.5" cy="40.5" r="1.5" fill="#C4C4C4"/>
<circle cx="359.5" cy="40.5" r="1.5" fill="#C4C4C4"/>
<circle cx="189.5" cy="53.5" r="1.5" fill="#C4C4C4"/>
<circle cx="208.5" cy="53.5" r="1.5" fill="#C4C4C4"/>
<circle cx="227.5" cy="53.5" r="1.5" fill="#C4C4C4"/>
<circle cx="246.5" cy="53.5" r="1.5" fill="#C4C4C4"/>
<circle cx="265.5" cy="53.5" r="1.5" fill="#C4C4C4"/>
<circle cx="283.5" cy="53.5" r="1.5" fill="#C4C4C4"/>
<circle cx="302.5" cy="53.5" r="1.5" fill="#C4C4C4"/>
<circle cx="321.5" cy="53.5" r="1.5" fill="#C4C4C4"/>
<circle cx="340.5" cy="53.5" r="1.5" fill="#C4C4C4"/>
<circle cx="359.5" cy="53.5" r="1.5" fill="#C4C4C4"/>
<circle cx="189.5" cy="66.5" r="1.5" fill="#C4C4C4"/>
<circle cx="208.5" cy="66.5" r="1.5" fill="#C4C4C4"/>
<circle cx="227.5" cy="66.5" r="1.5" fill="#C4C4C4"/>
<circle cx="246.5" cy="66.5" r="1.5" fill="#C4C4C4"/>
<circle cx="265.5" cy="66.5" r="1.5" fill="#C4C4C4"/>
<circle cx="283.5" cy="66.5" r="1.5" fill="#C4C4C4"/>
<circle cx="302.5" cy="66.5" r="1.5" fill="#C4C4C4"/>
<circle cx="321.5" cy="66.5" r="1.5" fill="#C4C4C4"/>
<circle cx="340.5" cy="66.5" r="1.5" fill="#C4C4C4"/>
<circle cx="359.5" cy="66.5" r="1.5" fill="#C4C4C4"/>
<circle cx="189.5" cy="79.5" r="1.5" fill="#C4C4C4"/>
<circle cx="208.5" cy="79.5" r="1.5" fill="#C4C4C4"/>
<circle cx="227.5" cy="79.5" r="1.5" fill="#C4C4C4"/>
<circle cx="246.5" cy="79.5" r="1.5" fill="#C4C4C4"/>
<circle cx="265.5" cy="79.5" r="1.5" fill="#C4C4C4"/>
<circle cx="283.5" cy="79.5" r="1.5" fill="#C4C4C4"/>
<circle cx="302.5" cy="79.5" r="1.5" fill="#C4C4C4"/>
<circle cx="321.5" cy="79.5" r="1.5" fill="#C4C4C4"/>
<circle cx="340.5" cy="79.5" r="1.5" fill="#C4C4C4"/>
<circle cx="359.5" cy="79.5" r="1.5" fill="#C4C4C4"/>
<circle cx="189.5" cy="92.5" r="1.5" fill="#C4C4C4"/>
<circle cx="208.5" cy="92.5" r="1.5" fill="#C4C4C4"/>
<circle cx="227.5" cy="92.5" r="1.5" fill="#C4C4C4"/>
<circle cx="246.5" cy="92.5" r="1.5" fill="#C4C4C4"/>
<circle cx="265.5" cy="92.5" r="1.5" fill="#C4C4C4"/>
<circle cx="283.5" cy="92.5" r="1.5" fill="#C4C4C4"/>
<circle cx="302.5" cy="92.5" r="1.5" fill="#C4C4C4"/>
<circle cx="321.5" cy="92.5" r="1.5" fill="#C4C4C4"/>
<circle cx="340.5" cy="92.5" r="1.5" fill="#C4C4C4"/>
<circle cx="359.5" cy="92.5" r="1.5" fill="#C4C4C4"/>
<circle cx="189.5" cy="105.5" r="1.5" fill="#C4C4C4"/>
<circle cx="208.5" cy="105.5" r="1.5" fill="#C4C4C4"/>
<circle cx="227.5" cy="105.5" r="1.5" fill="#C4C4C4"/>
<circle cx="246.5" cy="105.5" r="1.5" fill="#C4C4C4"/>
<circle cx="265.5" cy="105.5" r="1.5" fill="#C4C4C4"/>
<circle cx="283.5" cy="105.5" r="1.5" fill="#C4C4C4"/>
<circle cx="302.5" cy="105.5" r="1.5" fill="#C4C4C4"/>
<circle cx="321.5" cy="105.5" r="1.5" fill="#C4C4C4"/>
<circle cx="340.5" cy="105.5" r="1.5" fill="#C4C4C4"/>
<circle cx="359.5" cy="105.5" r="1.5" fill="#C4C4C4"/>
<circle cx="189.5" cy="118.5" r="1.5" fill="#C4C4C4"/>
<circle cx="208.5" cy="118.5" r="1.5" fill="#C4C4C4"/>
<circle cx="227.5" cy="118.5" r="1.5" fill="#C4C4C4"/>
<circle cx="246.5" cy="118.5" r="1.5" fill="#C4C4C4"/>
<circle cx="265.5" cy="118.5" r="1.5" fill="#C4C4C4"/>
<circle cx="283.5" cy="118.5" r="1.5" fill="#C4C4C4"/>
<circle cx="302.5" cy="118.5" r="1.5" fill="#C4C4C4"/>
<circle cx="321.5" cy="118.5" r="1.5" fill="#C4C4C4"/>
<circle cx="340.5" cy="118.5" r="1.5" fill="#C4C4C4"/>
<circle cx="359.5" cy="118.5" r="1.5" fill="#C4C4C4"/>
<circle cx="189.5" cy="131.5" r="1.5" fill="#C4C4C4"/>
<circle cx="208.5" cy="131.5" r="1.5" fill="#C4C4C4"/>
<circle cx="227.5" cy="131.5" r="1.5" fill="#C4C4C4"/>
<circle cx="246.5" cy="131.5" r="1.5" fill="#C4C4C4"/>
<circle cx="265.5" cy="131.5" r="1.5" fill="#C4C4C4"/>
<circle cx="283.5" cy="131.5" r="1.5" fill="#C4C4C4"/>
<circle cx="302.5" cy="131.5" r="1.5" fill="#C4C4C4"/>
<circle cx="321.5" cy="131.5" r="1.5" fill="#C4C4C4"/>
<circle cx="340.5" cy="131.5" r="1.5" fill="#C4C4C4"/>
<circle cx="359.5" cy="131.5" r="1.5" fill="#C4C4C4"/>
<circle cx="189.5" cy="144.5" r="1.5" fill="#C4C4C4"/>
<circle cx="208.5" cy="144.5" r="1.5" fill="#C4C4C4"/>
<circle cx="227.5" cy="144.5" r="1.5" fill="#C4C4C4"/>
<circle cx="246.5" cy="144.5" r="1.5" fill="#C4C4C4"/>
<circle cx="265.5" cy="144.5" r="1.5" fill="#C4C4C4"/>
<circle cx="283.5" cy="144.5" r="1.5" fill="#C4C4C4"/>
<circle cx="302.5" cy="144.5" r="1.5" fill="#C4C4C4"/>
<circle cx="321.5" cy="144.5" r="1.5" fill="#C4C4C4"/>
<circle cx="340.5" cy="144.5" r="1.5" fill="#C4C4C4"/>
<circle cx="359.5" cy="144.5" r="1.5" fill="#C4C4C4"/>
<circle cx="189.5" cy="157.5" r="1.5" fill="#C4C4C4"/>
<circle cx="208.5" cy="157.5" r="1.5" fill="#C4C4C4"/>
<circle cx="227.5" cy="157.5" r="1.5" fill="#C4C4C4"/>
<circle cx="246.5" cy="157.5" r="1.5" fill="#C4C4C4"/>
<circle cx="265.5" cy="157.5" r="1.5" fill="#C4C4C4"/>
<circle cx="283.5" cy="157.5" r="1.5" fill="#C4C4C4"/>
<circle cx="302.5" cy="157.5" r="1.5" fill="#C4C4C4"/>
<circle cx="321.5" cy="157.5" r="1.5" fill="#C4C4C4"/>
<circle cx="340.5" cy="157.5" r="1.5" fill="#C4C4C4"/>
<circle cx="359.5" cy="157.5" r="1.5" fill="#C4C4C4"/>
<circle cx="189.5" cy="170.5" r="1.5" fill="#C4C4C4"/>
<circle cx="208.5" cy="170.5" r="1.5" fill="#C4C4C4"/>
<circle cx="227.5" cy="170.5" r="1.5" fill="#C4C4C4"/>
<circle cx="246.5" cy="170.5" r="1.5" fill="#C4C4C4"/>
<circle cx="265.5" cy="170.5" r="1.5" fill="#C4C4C4"/>
<circle cx="283.5" cy="170.5" r="1.5" fill="#C4C4C4"/>
<circle cx="302.5" cy="170.5" r="1.5" fill="#C4C4C4"/>
<circle cx="321.5" cy="170.5" r="1.5" fill="#C4C4C4"/>
<circle cx="340.5" cy="170.5" r="1.5" fill="#C4C4C4"/>
<circle cx="359.5" cy="170.5" r="1.5" fill="#C4C4C4"/>
<circle cx="189.5" cy="183.5" r="1.5" fill="#C4C4C4"/>
<circle cx="208.5" cy="183.5" r="1.5" fill="#C4C4C4"/>
<circle cx="227.5" cy="183.5" r="1.5" fill="#C4C4C4"/>
<circle cx="246.5" cy="183.5" r="1.5" fill="#C4C4C4"/>
<circle cx="265.5" cy="183.5" r="1.5" fill="#C4C4C4"/>
<circle cx="283.5" cy="183.5" r="1.5" fill="#C4C4C4"/>
<circle cx="302.5" cy="183.5" r="1.5" fill="#C4C4C4"/>
<circle cx="321.5" cy="183.5" r="1.5" fill="#C4C4C4"/>
<circle cx="340.5" cy="183.5" r="1.5" fill="#C4C4C4"/>
<circle cx="359.5" cy="183.5" r="1.5" fill="#C4C4C4"/>
<circle cx="189.5" cy="196.5" r="1.5" fill="#C4C4C4"/>
<circle cx="208.5" cy="196.5" r="1.5" fill="#C4C4C4"/>
<circle cx="227.5" cy="196.5" r="1.5" fill="#C4C4C4"/>
<circle cx="246.5" cy="196.5" r="1.5" fill="#C4C4C4"/>
<circle cx="265.5" cy="196.5" r="1.5" fill="#C4C4C4"/>
<circle cx="283.5" cy="196.5" r="1.5" fill="#C4C4C4"/>
<circle cx="302.5" cy="196.5" r="1.5" fill="#C4C4C4"/>
<circle cx="321.5" cy="196.5" r="1.5" fill="#C4C4C4"/>
<circle cx="340.5" cy="196.5" r="1.5" fill="#C4C4C4"/>
<circle cx="359.5" cy="196.5" r="1.5" fill="#C4C4C4"/>
<circle cx="189.5" cy="209.5" r="1.5" fill="#C4C4C4"/>
<circle cx="208.5" cy="209.5" r="1.5" fill="#C4C4C4"/>
<circle cx="227.5" cy="209.5" r="1.5" fill="#C4C4C4"/>
<circle cx="246.5" cy="209.5" r="1.5" fill="#C4C4C4"/>
<circle cx="265.5" cy="209.5" r="1.5" fill="#C4C4C4"/>
<circle cx="283.5" cy="209.5" r="1.5" fill="#C4C4C4"/>
<circle cx="302.5" cy="209.5" r="1.5" fill="#C4C4C4"/>
<circle cx="321.5" cy="209.5" r="1.5" fill="#C4C4C4"/>
<circle cx="340.5" cy="209.5" r="1.5" fill="#C4C4C4"/>
<circle cx="359.5" cy="209.5" r="1.5" fill="#C4C4C4"/>
<circle cx="189.5" cy="222.5" r="1.5" fill="#C4C4C4"/>
<circle cx="208.5" cy="222.5" r="1.5" fill="#C4C4C4"/>
<circle cx="227.5" cy="222.5" r="1.5" fill="#C4C4C4"/>
<circle cx="246.5" cy="222.5" r="1.5" fill="#C4C4C4"/>
<circle cx="265.5" cy="222.5" r="1.5" fill="#C4C4C4"/>
<circle cx="283.5" cy="222.5" r="1.5" fill="#C4C4C4"/>
<circle cx="302.5" cy="222.5" r="1.5" fill="#C4C4C4"/>
<circle cx="321.5" cy="222.5" r="1.5" fill="#C4C4C4"/>
<circle cx="340.5" cy="222.5" r="1.5" fill="#C4C4C4"/>
<circle cx="359.5" cy="222.5" r="1.5" fill="#C4C4C4"/>
<circle cx="189.5" cy="235.5" r="1.5" fill="#C4C4C4"/>
<circle cx="208.5" cy="235.5" r="1.5" fill="#C4C4C4"/>
<circle cx="227.5" cy="235.5" r="1.5" fill="#C4C4C4"/>
<circle cx="246.5" cy="235.5" r="1.5" fill="#C4C4C4"/>
<circle cx="265.5" cy="235.5" r="1.5" fill="#C4C4C4"/>
<circle cx="283.5" cy="235.5" r="1.5" fill="#C4C4C4"/>
<circle cx="302.5" cy="235.5" r="1.5" fill="#C4C4C4"/>
<circle cx="321.5" cy="235.5" r="1.5" fill="#C4C4C4"/>
<circle cx="340.5" cy="235.5" r="1.5" fill="#C4C4C4"/>
<circle cx="359.5" cy="235.5" r="1.5" fill="#C4C4C4"/>
<circle cx="189.5" cy="248.5" r="1.5" fill="#C4C4C4"/>
<circle cx="208.5" cy="248.5" r="1.5" fill="#C4C4C4"/>
<circle cx="227.5" cy="248.5" r="1.5" fill="#C4C4C4"/>
<circle cx="246.5" cy="248.5" r="1.5" fill="#C4C4C4"/>
<circle cx="265.5" cy="248.5" r="1.5" fill="#C4C4C4"/>
<circle cx="283.5" cy="248.5" r="1.5" fill="#C4C4C4"/>
<circle cx="302.5" cy="248.5" r="1.5" fill="#C4C4C4"/>
<circle cx="321.5" cy="248.5" r="1.5" fill="#C4C4C4"/>
<circle cx="340.5" cy="248.5" r="1.5" fill="#C4C4C4"/>
<circle cx="359.5" cy="248.5" r="1.5" fill="#C4C4C4"/>
<circle cx="189.5" cy="261.5" r="1.5" fill="#C4C4C4"/>
<circle cx="208.5" cy="261.5" r="1.5" fill="#C4C4C4"/>
<circle cx="227.5" cy="261.5" r="1.5" fill="#C4C4C4"/>
<circle cx="246.5" cy="261.5" r="1.5" fill="#C4C4C4"/>
<circle cx="265.5" cy="261.5" r="1.5" fill="#C4C4C4"/>
<circle cx="283.5" cy="261.5" r="1.5" fill="#C4C4C4"/>
<circle cx="302.5" cy="261.5" r="1.5" fill="#C4C4C4"/>
<circle cx="321.5" cy="261.5" r="1.5" fill="#C4C4C4"/>
<circle cx="340.5" cy="261.5" r="1.5" fill="#C4C4C4"/>
<circle cx="359.5" cy="261.5" r="1.5" fill="#C4C4C4"/>
<circle cx="189.5" cy="274.5" r="1.5" fill="#C4C4C4"/>
<circle cx="208.5" cy="274.5" r="1.5" fill="#C4C4C4"/>
<circle cx="227.5" cy="274.5" r="1.5" fill="#C4C4C4"/>
<circle cx="246.5" cy="274.5" r="1.5" fill="#C4C4C4"/>
<circle cx="265.5" cy="274.5" r="1.5" fill="#C4C4C4"/>
<circle cx="283.5" cy="274.5" r="1.5" fill="#C4C4C4"/>
<circle cx="302.5" cy="274.5" r="1.5" fill="#C4C4C4"/>
<circle cx="321.5" cy="274.5" r="1.5" fill="#C4C4C4"/>
<circle cx="340.5" cy="274.5" r="1.5" fill="#C4C4C4"/>
<circle cx="359.5" cy="274.5" r="1.5" fill="#C4C4C4"/>
<circle cx="189.5" cy="287.5" r="1.5" fill="#C4C4C4"/>
<circle cx="208.5" cy="287.5" r="1.5" fill="#C4C4C4"/>
<circle cx="227.5" cy="287.5" r="1.5" fill="#C4C4C4"/>
<circle cx="246.5" cy="287.5" r="1.5" fill="#C4C4C4"/>
<circle cx="265.5" cy="287.5" r="1.5" fill="#C4C4C4"/>
<circle cx="283.5" cy="287.5" r="1.5" fill="#C4C4C4"/>
<circle cx="302.5" cy="287.5" r="1.5" fill="#C4C4C4"/>
<circle cx="321.5" cy="287.5" r="1.5" fill="#C4C4C4"/>
<circle cx="340.5" cy="287.5" r="1.5" fill="#C4C4C4"/>
<circle cx="359.5" cy="287.5" r="1.5" fill="#C4C4C4"/>
<circle cx="189.5" cy="300.5" r="1.5" fill="#C4C4C4"/>
<circle cx="208.5" cy="300.5" r="1.5" fill="#C4C4C4"/>
<circle cx="227.5" cy="300.5" r="1.5" fill="#C4C4C4"/>
<circle cx="246.5" cy="300.5" r="1.5" fill="#C4C4C4"/>
<circle cx="265.5" cy="300.5" r="1.5" fill="#C4C4C4"/>
<circle cx="283.5" cy="300.5" r="1.5" fill="#C4C4C4"/>
<circle cx="302.5" cy="300.5" r="1.5" fill="#C4C4C4"/>
<circle cx="321.5" cy="300.5" r="1.5" fill="#C4C4C4"/>
<circle cx="340.5" cy="300.5" r="1.5" fill="#C4C4C4"/>
<circle cx="359.5" cy="300.5" r="1.5" fill="#C4C4C4"/>
<circle cx="189.5" cy="313.5" r="1.5" fill="#C4C4C4"/>
<circle cx="208.5" cy="313.5" r="1.5" fill="#C4C4C4"/>
<circle cx="227.5" cy="313.5" r="1.5" fill="#C4C4C4"/>
<circle cx="246.5" cy="313.5" r="1.5" fill="#C4C4C4"/>
<circle cx="265.5" cy="313.5" r="1.5" fill="#C4C4C4"/>
<circle cx="283.5" cy="313.5" r="1.5" fill="#C4C4C4"/>
<circle cx="302.5" cy="313.5" r="1.5" fill="#C4C4C4"/>
<circle cx="321.5" cy="313.5" r="1.5" fill="#C4C4C4"/>
<circle cx="340.5" cy="313.5" r="1.5" fill="#C4C4C4"/>
<circle cx="359.5" cy="313.5" r="1.5" fill="#C4C4C4"/>
<circle cx="189.5" cy="326.5" r="1.5" fill="#C4C4C4"/>
<circle cx="208.5" cy="326.5" r="1.5" fill="#C4C4C4"/>
<circle cx="227.5" cy="326.5" r="1.5" fill="#C4C4C4"/>
<circle cx="246.5" cy="326.5" r="1.5" fill="#C4C4C4"/>
<circle cx="265.5" cy="326.5" r="1.5" fill="#C4C4C4"/>
<circle cx="283.5" cy="326.5" r="1.5" fill="#C4C4C4"/>
<circle cx="302.5" cy="326.5" r="1.5" fill="#C4C4C4"/>
<circle cx="321.5" cy="326.5" r="1.5" fill="#C4C4C4"/>
<circle cx="340.5" cy="326.5" r="1.5" fill="#C4C4C4"/>
<circle cx="359.5" cy="326.5" r="1.5" fill="#C4C4C4"/>
<circle cx="189.5" cy="339.5" r="1.5" fill="#C4C4C4"/>
<circle cx="208.5" cy="339.5" r="1.5" fill="#C4C4C4"/>
<circle cx="227.5" cy="339.5" r="1.5" fill="#C4C4C4"/>
<circle cx="246.5" cy="339.5" r="1.5" fill="#C4C4C4"/>
<circle cx="265.5" cy="339.5" r="1.5" fill="#C4C4C4"/>
<circle cx="283.5" cy="339.5" r="1.5" fill="#C4C4C4"/>
<circle cx="302.5" cy="339.5" r="1.5" fill="#C4C4C4"/>
<circle cx="321.5" cy="339.5" r="1.5" fill="#C4C4C4"/>
<circle cx="340.5" cy="339.5" r="1.5" fill="#C4C4C4"/>
<circle cx="359.5" cy="339.5" r="1.5" fill="#C4C4C4"/>
<circle cx="189.5" cy="352.5" r="1.5" fill="#C4C4C4"/>
<circle cx="208.5" cy="352.5" r="1.5" fill="#C4C4C4"/>
<circle cx="227.5" cy="352.5" r="1.5" fill="#C4C4C4"/>
<circle cx="246.5" cy="352.5" r="1.5" fill="#C4C4C4"/>
<circle cx="265.5" cy="352.5" r="1.5" fill="#C4C4C4"/>
<circle cx="283.5" cy="352.5" r="1.5" fill="#C4C4C4"/>
<circle cx="302.5" cy="352.5" r="1.5" fill="#C4C4C4"/>
<circle cx="321.5" cy="352.5" r="1.5" fill="#C4C4C4"/>
<circle cx="340.5" cy="352.5" r="1.5" fill="#C4C4C4"/>
<circle cx="359.5" cy="352.5" r="1.5" fill="#C4C4C4"/>
<circle cx="189.5" cy="365.5" r="1.5" fill="#C4C4C4"/>
<circle cx="208.5" cy="365.5" r="1.5" fill="#C4C4C4"/>
<circle cx="227.5" cy="365.5" r="1.5" fill="#C4C4C4"/>
<circle cx="246.5" cy="365.5" r="1.5" fill="#C4C4C4"/>
<circle cx="265.5" cy="365.5" r="1.5" fill="#C4C4C4"/>
<circle cx="283.5" cy="365.5" r="1.5" fill="#C4C4C4"/>
<circle cx="302.5" cy="365.5" r="1.5" fill="#C4C4C4"/>
<circle cx="321.5" cy="365.5" r="1.5" fill="#C4C4C4"/>
<circle cx="340.5" cy="365.5" r="1.5" fill="#C4C4C4"/>
<circle cx="359.5" cy="365.5" r="1.5" fill="#C4C4C4"/>
<circle cx="189.5" cy="378.5" r="1.5" fill="#C4C4C4"/>
<circle cx="208.5" cy="378.5" r="1.5" fill="#C4C4C4"/>
<circle cx="227.5" cy="378.5" r="1.5" fill="#C4C4C4"/>
<circle cx="246.5" cy="378.5" r="1.5" fill="#C4C4C4"/>
<circle cx="265.5" cy="378.5" r="1.5" fill="#C4C4C4"/>
<circle cx="283.5" cy="378.5" r="1.5" fill="#C4C4C4"/>
<circle cx="302.5" cy="378.5" r="1.5" fill="#C4C4C4"/>
<circle cx="321.5" cy="378.5" r="1.5" fill="#C4C4C4"/>
<circle cx="340.5" cy="378.5" r="1.5" fill="#C4C4C4"/>
<circle cx="359.5" cy="378.5" r="1.5" fill="#C4C4C4"/>
</svg>
