<?xml version="1.0" encoding="utf-8"?>
<!-- Generator: Adobe Illustrator 24.1.2, SVG Export Plug-In . SVG Version: 6.00 Build 0)  -->
<svg version="1.1" id="Слой_1" xmlns="http://www.w3.org/2000/svg" xmlns:xlink="http://www.w3.org/1999/xlink" x="0px" y="0px"
	 viewBox="0 0 1905.9 1258" style="enable-background:new 0 0 1905.9 1258;" xml:space="preserve">
<style type="text/css">
	.st0{fill:#F7931A;fill-opacity:0.1;}
	.st1{fill:#F7931A;fill-opacity:5.000000e-02;}
	.st2{fill:#1B264B;}
	.st3{fill:#FFFFFF;fill-opacity:4.000000e-02;}
</style>
<path class="st0" d="M87,978.2c9.6-14.5,1.3-28.4-12.7-41.6L89.4,918l-11.7-9.3L63,926.8c-3.1-2.4-6.2-4.9-9.4-7.3l14.8-18.2
	l-11.6-9.2l-15.1,18.6c-2.6-2-5.1-3.9-7.5-5.8l0-0.1L18.2,892l-9.8,12.1c0,0,8.7,6.7,8.5,6.7c4.7,3.7,4.1,7.6,2.7,10.3L2.3,942.3
	c0.4,0.3,0.8,0.7,1.2,1.1c-0.4-0.3-0.8-0.6-1.2-1L-21.9,972c-1.4,1.3-4.1,2.9-7.4,0.3c0,0.2-8.5-6.7-8.5-6.7L-51,977.3l15.1,12
	c2.8,2.2,5.6,4.5,8.3,6.7l-15.3,18.8l11.6,9.3l15.1-18.6c3.1,2.6,6.2,5.1,9.2,7.5l-15,18.5l11.7,9.3L5,1021.9
	c20.5,14.5,38.1,20.6,54.3,4.1c13.1-13.3,11.3-25.2,2.3-36.7C71,991.3,80,988.8,87,978.2z M38,1005.4c-11.4,14-34.9-7.2-42.8-13.5
	L15.5,967C23.4,973.3,50,990.8,38,1005.4z M61.2,966c-10.4,12.8-29.8-5.1-36.4-10.3L43.1,933C49.7,938.3,72,952.7,61.2,966z"/>
<path class="st0" d="M592.5,308c-8.4-15.2-24.6-14.3-42.8-7.9l-9.5-22l-13.6,6.1l9.3,21.4c-3.6,1.6-7.2,3.3-10.8,5l-9.3-21.5
	l-13.6,6.1l9.5,22c-2.9,1.4-5.8,2.7-8.6,4l0-0.1l-18.7,8.3l6.2,14.3c0,0,10-4.7,9.9-4.4c5.5-2.5,8.7-0.1,10.4,2.4l10.8,25
	c0.5-0.2,1-0.4,1.5-0.5c-0.5,0.2-0.9,0.4-1.5,0.6l15.2,35.1c0.5,1.8,0.7,5-3.2,6.7c0.2,0.1-9.9,4.4-9.9,4.4l4.3,17.2l17.7-7.9
	c3.3-1.5,6.6-2.9,9.7-4.3l9.6,22.2l13.6-6.1l-9.5-22c3.8-1.6,7.4-3.2,10.9-4.7l9.5,21.9l13.6-6.1l-9.6-22.2
	c22.3-11.5,35.8-24.3,28.6-46.3c-5.8-17.7-17.2-21.7-31.5-18.9C596.8,328.3,598.7,319.1,592.5,308z M594.1,364
	c7.2,16.6-22.5,27.6-31.7,31.7l-12.8-29.4C558.9,362.2,586.6,346.7,594.1,364z M569.8,325.3c6.5,15.1-18.3,24.1-26,27.5l-11.6-26.7
	C539.9,322.7,563,309.5,569.8,325.3z"/>
<path class="st0" d="M1383.5,520c-8.4-15.2-24.6-14.3-42.8-7.9l-9.5-22l-13.6,6.1l9.3,21.4c-3.6,1.6-7.2,3.3-10.8,5l-9.3-21.5
	l-13.6,6.1l9.5,22c-2.9,1.4-5.8,2.7-8.6,4l0-0.1l-18.7,8.3l6.2,14.3c0,0,9.9-4.7,9.9-4.4c5.5-2.5,8.7-0.1,10.4,2.4l10.8,25
	c0.5-0.2,1-0.4,1.5-0.5c-0.5,0.2-0.9,0.4-1.5,0.6l15.2,35.1c0.5,1.8,0.7,5-3.2,6.7c0.2,0.1-9.9,4.4-9.9,4.4l4.3,17.2l17.7-7.9
	c3.3-1.5,6.6-2.9,9.7-4.3l9.6,22.2l13.6-6.1l-9.5-22c3.8-1.6,7.4-3.2,10.9-4.7l9.5,21.9l13.6-6.1l-9.6-22.2
	c22.3-11.5,35.8-24.3,28.7-46.3c-5.8-17.7-17.2-21.7-31.5-18.9C1387.8,540.3,1389.7,531.1,1383.5,520z M1385.1,576
	c7.2,16.6-22.5,27.6-31.7,31.7l-12.8-29.4C1349.9,574.2,1377.6,558.7,1385.1,576z M1360.8,537.3c6.5,15.1-18.3,24.1-26,27.5
	l-11.6-26.7C1330.9,534.7,1354,521.5,1360.8,537.3z"/>
<path class="st1" d="M1526.9,587.2c-36.6-65.9-107-62-186.1-34.4l-41.4-95.6l-59.1,26.4l40.3,93c-15.5,6.9-31.3,14.3-47,21.7
	l-40.7-93.6l-59,26.4l41.4,95.6c-12.7,6-25.2,11.8-37.4,17.3l-0.2-0.2l-81.5,36.3l26.9,62.2c0,0,43.3-20.3,42.9-19.2
	c23.9-10.7,37.7-0.5,45.1,10.3l47.2,108.8c2.1-0.9,4.2-1.7,6.4-2.4c-2,0.9-4.1,1.8-6.3,2.8l66.1,152.5c2.2,7.9,2.9,21.7-13.8,29.2
	c1,0.3-43,19.2-43,19.2l18.6,74.6l76.8-34.3c14.3-6.4,28.5-12.4,42.4-18.5l41.9,96.6l59.1-26.4l-41.5-95.6
	c16.3-6.9,32.1-13.8,47.4-20.6l41.3,95.2l59.1-26.4l-41.8-96.5c96.9-50,155.8-105.7,124.6-201.4c-25.1-77.1-74.8-94.3-136.9-82.4
	C1545.4,675.3,1553.8,635.4,1526.9,587.2z M1533.9,830.8c31.4,72.2-97.9,120.1-137.9,138l-55.5-128.1
	C1380.5,823,1501.3,755.5,1533.9,830.8z M1428,662.4c28.5,65.7-79.7,104.9-113,119.8L1264.6,666C1298,651.2,1398.3,593.9,1428,662.4
	z"/>
<path class="st2" d="M-11-4.4l1502.2-540c36.8-13.2,77.2,6.2,89.9,43.2l321,936c12.8,37.2-7.6,77.6-45.2,89.5L82,1083.7
	c-45.1,14.2-91-19.4-91-66.6L-11-4.4z"/>
<path class="st2" d="M149.7,11l1502.2-540c36.8-13.2,77.2,6.2,89.9,43.2l321,936c12.8,37.2-7.6,77.6-45.2,89.5L242.7,1099
	c-45.1,14.2-91-19.4-91-66.6L149.7,11z"/>
<path class="st3" d="M125.6-513.7l-831.7,267.5c-37.3,12-57.5,52.3-44.8,89.3l223.9,653c12.8,37.4,54.1,56.8,91.1,42.7l925.1-351.3
	c42-16,58.3-66.8,33.4-104.2L125.6-513.7z"/>
<path class="st3" d="M302.6-419.7l-831.7,267.5c-37.3,12-57.5,52.3-44.8,89.3l223.9,653c12.8,37.4,54.1,56.8,91.1,42.7l925.1-351.3
	c42-16,58.3-66.8,33.4-104.2L302.6-419.7z"/>
</svg>
