<?xml version="1.0" encoding="utf-8"?>
<!-- Generator: Adobe Illustrator 24.1.2, SVG Export Plug-In . SVG Version: 6.00 Build 0)  -->
<svg version="1.1" id="Слой_1" xmlns="http://www.w3.org/2000/svg" xmlns:xlink="http://www.w3.org/1999/xlink" x="0px" y="0px"
	 viewBox="0 0 20 17" style="enable-background:new 0 0 20 17;" xml:space="preserve">
<style type="text/css">
	.st0{fill:#FFFEFD;}
</style>
<path class="st0" d="M7.5,17c-0.9,0-1.8-0.1-2.7-0.2c-1.6-0.3-3.2-1.1-3.6-1.4L0,14.7l1.3-0.4c1.4-0.5,2.3-0.8,3.3-1.2
	c-1.1-0.5-1.9-1.5-2.3-2.7L2,9.4l0.2,0C2,9.2,1.9,8.9,1.7,8.7C1.2,7.9,0.9,6.9,1,6.1l0.1-0.8l0.5,0.2C1.3,5.1,1.2,4.7,1.1,4.2
	C0.9,3.2,1.1,2,1.6,1L2,0.2l0.6,0.7c1.7,2.2,4,3.5,6.6,3.8C9,4,9.1,3.3,9.4,2.6c0.3-0.8,0.9-1.4,1.6-1.9c0.8-0.5,1.8-0.8,2.8-0.7
	c1,0.1,2,0.5,2.7,1.2c0.4-0.1,0.6-0.2,1-0.3c0.2-0.1,0.5-0.2,0.8-0.3l1.1-0.4l-0.7,2.2c0,0,0.1,0,0.2,0L20,2.3l-0.7,1
	c0,0.1-0.1,0.1-0.1,0.1c-0.1,0.1-0.1,0.2-1.1,1.6c-0.2,0.3-0.4,0.8-0.3,1.3c0.1,1.8-0.1,3.4-0.6,4.8c-0.5,1.3-1.2,2.5-2.2,3.4
	c-1.2,1.1-2.8,1.9-4.6,2.3C9.4,16.9,8.5,17,7.5,17z"/>
</svg>
